<svg width="17" height="17" viewBox="0 0 17 17" fill="none" xmlns="http://www.w3.org/2000/svg">
<path d="M16.583 1.76197C16.583 1.46238 16.4487 1.17857 16.217 0.988633C15.9853 0.798693 15.6807 0.722633 15.3869 0.781393L5.38689 2.78139C4.91947 2.87487 4.58301 3.28529 4.58301 3.76197V12.8758C4.27023 12.8021 3.93365 12.762 3.58301 12.762C1.92616 12.762 0.583008 13.6574 0.583008 14.762C0.583008 15.8666 1.92616 16.762 3.58301 16.762C5.23986 16.762 6.583 15.8666 6.58301 14.762V6.58177L14.583 4.98177V10.8758C14.2702 10.8021 13.9336 10.762 13.583 10.762C11.9261 10.762 10.583 11.6574 10.583 12.762C10.583 13.8666 11.9261 14.762 13.583 14.762C15.2399 14.762 16.583 13.8666 16.583 12.762V1.76197Z" fill="#E7E6E6"/>
</svg>
